<?xml version="1.0" encoding="UTF-8"?>
<!DOCTYPE svg PUBLIC "-//W3C//DTD SVG 1.1//EN" "http://www.w3.org/Graphics/SVG/1.1/DTD/svg11.dtd">
<!-- Creator: CorelDRAW 2018 (64-Bit) -->
<svg xmlns="http://www.w3.org/2000/svg" xml:space="preserve" width="100mm" height="80mm" version="1.1" style="shape-rendering:geometricPrecision; text-rendering:geometricPrecision; image-rendering:optimizeQuality; fill-rule:evenodd; clip-rule:evenodd"
viewBox="0 0 10000 8000"
 xmlns:xlink="http://www.w3.org/1999/xlink">
 <defs>
  <style type="text/css">
   <![CDATA[
    .fil0 {fill:#282828;fill-rule:nonzero}
   ]]>
  </style>
 </defs>
 <g id="Warstwa_x0020_1">
  <metadata id="CorelCorpID_0Corel-Layer"/>
  <path class="fil0" d="M8614.44 5127.11c0,460.94 -108.18,799.63 -324.55,1016 -216.37,216.37 -549.16,324.56 -998.36,324.56 -449.21,0 -925.46,-23.52 -1428.75,-70.56l-652.64 -1111.25c366.88,23.52 1395.82,194.03 1781.53,194.03 108.18,0 194.02,-31.75 257.52,-95.25 63.5,-63.5 95.25,-149.35 95.25,-257.53l0 -2681.11 -2028.47 88.2 582.08 -1005.43 2716.39 -8.81 0 3607.15z"/>
  <polygon class="fil0" points="2570.9,6479.71 1300.9,6479.71 1300.9,1540.82 2570.9,1540.82 2570.9,3481.1 3205.9,3481.1 4306.57,1540.82 5647.13,1540.82 4264.24,3974.99 5640.07,6479.71 4299.52,6479.71 3205.9,4468.88 2570.9,4468.88 "/>
 </g>
</svg>
