<?xml version="1.0" encoding="UTF-8"?>
<!DOCTYPE svg PUBLIC "-//W3C//DTD SVG 1.1//EN" "http://www.w3.org/Graphics/SVG/1.1/DTD/svg11.dtd">
<!-- Creator: CorelDRAW 2018 (64-Bit) -->
<svg xmlns="http://www.w3.org/2000/svg" xml:space="preserve" width="100mm" height="65mm" version="1.1" style="shape-rendering:geometricPrecision; text-rendering:geometricPrecision; image-rendering:optimizeQuality; fill-rule:evenodd; clip-rule:evenodd"
viewBox="0 0 10000 6500"
 xmlns:xlink="http://www.w3.org/1999/xlink">
 <defs>
  <style type="text/css">
   <![CDATA[
    .fil0 {fill:#343537;fill-rule:nonzero}
   ]]>
  </style>
 </defs>
 <g id="Warstwa_x0020_1">
  <metadata id="CorelCorpID_0Corel-Layer"/>
  <path class="fil0" d="M10000 4727.35c0,604.09 -147.92,1047.96 -443.77,1331.52 -295.84,283.57 -735.11,441.13 -1349.32,441.13 -614.21,0 -1281.17,-46.6 -1969.33,-108.25l-892.37 -1456.35c501.64,30.83 1908.54,254.29 2435.93,254.29 147.92,0 265.29,-41.61 352.12,-124.83 86.82,-83.22 130.23,-195.73 130.23,-337.51l0 -3513.73 -2773.58 115.6 795.9 -1329.22 3714.19 0 0 4727.35z"/>
  <polygon class="fil0" points="1736.51,6500 -0,6500 -0,2.87 1736.51,2.87 1736.51,2570.17 2604.76,2570.17 4109.73,-0.21 5942.72,-0.21 4051.85,3217.44 5933.06,6500 4100.09,6500 2604.76,3864.71 1736.51,3864.71 "/>
 </g>
</svg>
